<mxfile host="app.diagrams.net" modified="2024-04-05T14:12:55.763Z" agent="Mozilla/5.0 (Windows NT 10.0; Win64; x64) AppleWebKit/537.36 (KHTML, like Gecko) Chrome/123.0.0.0 Safari/537.36" etag="mvWGmT2jG3tsELB_VP8n" version="23.1.2" type="github">
  <diagram name="Page-1" id="2cc2dc42-3aac-f2a9-1cec-7a8b7cbee084">
    <mxGraphModel dx="8448" dy="3240" grid="1" gridSize="10" guides="1" tooltips="1" connect="1" arrows="1" fold="1" page="1" pageScale="1" pageWidth="1100" pageHeight="850" background="none" math="0" shadow="0">
      <root>
        <mxCell id="0" />
        <mxCell id="1" parent="0" />
        <mxCell id="7026571954dc6520-1" value="" style="strokeWidth=1;shadow=0;dashed=0;align=center;html=1;shape=mxgraph.mockup.containers.browserWindow;rSize=0;strokeColor=#666666;mainText=,;recursiveResize=0;rounded=0;labelBackgroundColor=none;fontFamily=Verdana;fontSize=12;movable=1;resizable=1;rotatable=1;deletable=1;editable=1;locked=0;connectable=1;" parent="1" vertex="1">
          <mxGeometry x="30" y="20" width="1060" height="820" as="geometry" />
        </mxCell>
        <mxCell id="7026571954dc6520-2" value="Page 1" style="strokeWidth=1;shadow=0;dashed=0;align=center;html=1;shape=mxgraph.mockup.containers.anchor;fontSize=17;fontColor=#666666;align=left;" parent="7026571954dc6520-1" vertex="1">
          <mxGeometry x="60" y="12" width="110" height="26" as="geometry" />
        </mxCell>
        <mxCell id="7026571954dc6520-3" value="https://www.hmt.com" style="strokeWidth=1;shadow=0;dashed=0;align=center;html=1;shape=mxgraph.mockup.containers.anchor;rSize=0;fontSize=17;fontColor=#666666;align=left;" parent="7026571954dc6520-1" vertex="1">
          <mxGeometry x="130" y="60" width="250" height="26" as="geometry" />
        </mxCell>
        <mxCell id="7026571954dc6520-6" value="Username" style="text;html=1;points=[];align=left;verticalAlign=top;spacingTop=-4;fontSize=15;fontFamily=Verdana" parent="7026571954dc6520-1" vertex="1">
          <mxGeometry x="440" y="370" width="170" height="30" as="geometry" />
        </mxCell>
        <mxCell id="7026571954dc6520-8" value="Password" style="text;html=1;points=[];align=left;verticalAlign=top;spacingTop=-4;fontSize=15;fontFamily=Verdana" parent="7026571954dc6520-1" vertex="1">
          <mxGeometry x="440" y="440" width="170" height="30" as="geometry" />
        </mxCell>
        <mxCell id="7pJ2gOgN6x-UePzKQqjZ-26" value="********" style="strokeWidth=1;shadow=0;dashed=0;align=center;html=1;shape=mxgraph.mockup.forms.pwField;strokeColor=#999999;mainText=;align=left;fontColor=#666666;fontSize=17;spacingLeft=3;" vertex="1" parent="7026571954dc6520-1">
          <mxGeometry x="440" y="470" width="170" height="30" as="geometry" />
        </mxCell>
        <mxCell id="7pJ2gOgN6x-UePzKQqjZ-27" value="admin" style="strokeWidth=1;shadow=0;dashed=0;align=center;html=1;shape=mxgraph.mockup.forms.pwField;strokeColor=#999999;mainText=;align=left;fontColor=#666666;fontSize=17;spacingLeft=3;" vertex="1" parent="7026571954dc6520-1">
          <mxGeometry x="440" y="400" width="170" height="30" as="geometry" />
        </mxCell>
        <mxCell id="7pJ2gOgN6x-UePzKQqjZ-1" value="" style="strokeWidth=1;shadow=0;dashed=0;align=center;html=1;shape=mxgraph.mockup.containers.browserWindow;rSize=0;strokeColor=#666666;mainText=,;recursiveResize=0;rounded=0;labelBackgroundColor=none;fontFamily=Verdana;fontSize=12" vertex="1" parent="1">
          <mxGeometry x="30" y="865" width="1060" height="820" as="geometry" />
        </mxCell>
        <mxCell id="7pJ2gOgN6x-UePzKQqjZ-2" value="Page 1" style="strokeWidth=1;shadow=0;dashed=0;align=center;html=1;shape=mxgraph.mockup.containers.anchor;fontSize=17;fontColor=#666666;align=left;" vertex="1" parent="7pJ2gOgN6x-UePzKQqjZ-1">
          <mxGeometry x="60" y="12" width="110" height="26" as="geometry" />
        </mxCell>
        <mxCell id="7pJ2gOgN6x-UePzKQqjZ-3" value="https://www.hmt.com" style="strokeWidth=1;shadow=0;dashed=0;align=center;html=1;shape=mxgraph.mockup.containers.anchor;rSize=0;fontSize=17;fontColor=#666666;align=left;" vertex="1" parent="7pJ2gOgN6x-UePzKQqjZ-1">
          <mxGeometry x="130" y="60" width="250" height="26" as="geometry" />
        </mxCell>
        <mxCell id="7pJ2gOgN6x-UePzKQqjZ-53" value="" style="verticalLabelPosition=bottom;shadow=0;dashed=0;align=center;html=1;verticalAlign=top;strokeWidth=1;shape=mxgraph.mockup.markup.line;strokeColor=#999999;rounded=0;labelBackgroundColor=none;fillColor=#ffffff;fontFamily=Verdana;fontSize=12;fontColor=#000000;" vertex="1" parent="7pJ2gOgN6x-UePzKQqjZ-1">
          <mxGeometry y="135" width="1050" height="20" as="geometry" />
        </mxCell>
        <mxCell id="7pJ2gOgN6x-UePzKQqjZ-80" value="" style="shape=mxgraph.mockup.containers.marginRect;rectMarginTop=10;strokeColor=#666666;strokeWidth=1;dashed=0;rounded=1;arcSize=5;recursiveResize=0;html=1;whiteSpace=wrap;" vertex="1" parent="7pJ2gOgN6x-UePzKQqjZ-1">
          <mxGeometry x="70" y="225" width="200" height="200" as="geometry" />
        </mxCell>
        <mxCell id="7pJ2gOgN6x-UePzKQqjZ-81" value="Project 1" style="shape=rect;strokeColor=none;fillColor=#008cff;strokeWidth=1;dashed=0;rounded=1;arcSize=20;fontColor=#ffffff;fontSize=17;spacing=2;spacingTop=-2;align=left;autosize=1;spacingLeft=4;resizeWidth=0;resizeHeight=0;perimeter=none;html=1;whiteSpace=wrap;" vertex="1" parent="7pJ2gOgN6x-UePzKQqjZ-80">
          <mxGeometry x="5" width="90" height="30" as="geometry" />
        </mxCell>
        <mxCell id="7pJ2gOgN6x-UePzKQqjZ-85" value="Some default text to describe the project" style="text;html=1;points=[];align=left;verticalAlign=top;spacingTop=-4;fontSize=12;fontFamily=Verdana;whiteSpace=wrap;" vertex="1" parent="7pJ2gOgN6x-UePzKQqjZ-80">
          <mxGeometry x="20" y="60" width="160" height="65" as="geometry" />
        </mxCell>
        <mxCell id="7pJ2gOgN6x-UePzKQqjZ-83" value="Logout" style="text;html=1;points=[];align=left;verticalAlign=top;spacingTop=-4;fontSize=15;fontFamily=Verdana" vertex="1" parent="7pJ2gOgN6x-UePzKQqjZ-1">
          <mxGeometry x="990" y="115" width="60" height="30" as="geometry" />
        </mxCell>
        <mxCell id="7pJ2gOgN6x-UePzKQqjZ-84" value="Project" style="strokeWidth=1;shadow=0;dashed=0;align=center;html=1;shape=mxgraph.mockup.navigation.anchor;fontSize=17;fontColor=#666666;fontStyle=1;" vertex="1" parent="7pJ2gOgN6x-UePzKQqjZ-1">
          <mxGeometry x="20" y="115" width="60" height="30" as="geometry" />
        </mxCell>
        <mxCell id="7pJ2gOgN6x-UePzKQqjZ-86" value="" style="shape=mxgraph.mockup.containers.marginRect;rectMarginTop=10;strokeColor=#666666;strokeWidth=1;dashed=0;rounded=1;arcSize=5;recursiveResize=0;html=1;whiteSpace=wrap;" vertex="1" parent="7pJ2gOgN6x-UePzKQqjZ-1">
          <mxGeometry x="340" y="225" width="200" height="200" as="geometry" />
        </mxCell>
        <mxCell id="7pJ2gOgN6x-UePzKQqjZ-87" value="Project 2" style="shape=rect;strokeColor=none;fillColor=#008cff;strokeWidth=1;dashed=0;rounded=1;arcSize=20;fontColor=#ffffff;fontSize=17;spacing=2;spacingTop=-2;align=left;autosize=1;spacingLeft=4;resizeWidth=0;resizeHeight=0;perimeter=none;html=1;whiteSpace=wrap;" vertex="1" parent="7pJ2gOgN6x-UePzKQqjZ-86">
          <mxGeometry x="5" width="90" height="30" as="geometry" />
        </mxCell>
        <mxCell id="7pJ2gOgN6x-UePzKQqjZ-88" value="Some default text to describe the project" style="text;html=1;points=[];align=left;verticalAlign=top;spacingTop=-4;fontSize=12;fontFamily=Verdana;whiteSpace=wrap;" vertex="1" parent="7pJ2gOgN6x-UePzKQqjZ-86">
          <mxGeometry x="20" y="60" width="160" height="65" as="geometry" />
        </mxCell>
        <mxCell id="7pJ2gOgN6x-UePzKQqjZ-28" value="" style="strokeWidth=1;shadow=0;dashed=0;align=center;html=1;shape=mxgraph.mockup.containers.browserWindow;rSize=0;strokeColor=#666666;mainText=,;recursiveResize=0;rounded=0;labelBackgroundColor=none;fontFamily=Verdana;fontSize=12" vertex="1" parent="1">
          <mxGeometry x="-2050" y="730" width="1050" height="820" as="geometry" />
        </mxCell>
        <mxCell id="7pJ2gOgN6x-UePzKQqjZ-29" value="Page 1" style="strokeWidth=1;shadow=0;dashed=0;align=center;html=1;shape=mxgraph.mockup.containers.anchor;fontSize=17;fontColor=#666666;align=left;" vertex="1" parent="7pJ2gOgN6x-UePzKQqjZ-28">
          <mxGeometry x="60" y="12" width="110" height="26" as="geometry" />
        </mxCell>
        <mxCell id="7pJ2gOgN6x-UePzKQqjZ-30" value="https://www.hmt.com" style="strokeWidth=1;shadow=0;dashed=0;align=center;html=1;shape=mxgraph.mockup.containers.anchor;rSize=0;fontSize=17;fontColor=#666666;align=left;" vertex="1" parent="7pJ2gOgN6x-UePzKQqjZ-28">
          <mxGeometry x="130" y="60" width="250" height="26" as="geometry" />
        </mxCell>
        <mxCell id="7pJ2gOgN6x-UePzKQqjZ-31" value="Website Name" style="text;html=1;points=[];align=left;verticalAlign=top;spacingTop=-4;fontSize=30;fontFamily=Verdana" vertex="1" parent="7pJ2gOgN6x-UePzKQqjZ-28">
          <mxGeometry x="30" y="140" width="340" height="50" as="geometry" />
        </mxCell>
        <mxCell id="7pJ2gOgN6x-UePzKQqjZ-32" value="Section 1" style="text;html=1;points=[];align=left;verticalAlign=top;spacingTop=-4;fontSize=15;fontFamily=Verdana" vertex="1" parent="7pJ2gOgN6x-UePzKQqjZ-28">
          <mxGeometry x="540" y="140" width="170" height="30" as="geometry" />
        </mxCell>
        <mxCell id="7pJ2gOgN6x-UePzKQqjZ-33" value="Some default text to fill some space, and&amp;nbsp;&lt;span&gt;something more so there is more text&lt;/span&gt;" style="text;html=1;points=[];align=left;verticalAlign=top;spacingTop=-4;fontSize=12;fontFamily=Verdana;whiteSpace=wrap;" vertex="1" parent="7pJ2gOgN6x-UePzKQqjZ-28">
          <mxGeometry x="540" y="170" width="240" height="40" as="geometry" />
        </mxCell>
        <mxCell id="7pJ2gOgN6x-UePzKQqjZ-34" value="Section 2" style="text;html=1;points=[];align=left;verticalAlign=top;spacingTop=-4;fontSize=15;fontFamily=Verdana" vertex="1" parent="7pJ2gOgN6x-UePzKQqjZ-28">
          <mxGeometry x="540" y="230" width="170" height="30" as="geometry" />
        </mxCell>
        <mxCell id="7pJ2gOgN6x-UePzKQqjZ-35" value="Some default text to fill some space, and&amp;nbsp;&lt;span&gt;something more so there is more text&lt;/span&gt;" style="text;html=1;points=[];align=left;verticalAlign=top;spacingTop=-4;fontSize=12;fontFamily=Verdana;whiteSpace=wrap;" vertex="1" parent="7pJ2gOgN6x-UePzKQqjZ-28">
          <mxGeometry x="540" y="260" width="240" height="40" as="geometry" />
        </mxCell>
        <mxCell id="7pJ2gOgN6x-UePzKQqjZ-36" value="Section 1" style="text;html=1;points=[];align=left;verticalAlign=top;spacingTop=-4;fontSize=15;fontFamily=Verdana" vertex="1" parent="7pJ2gOgN6x-UePzKQqjZ-28">
          <mxGeometry x="800" y="140" width="170" height="30" as="geometry" />
        </mxCell>
        <mxCell id="7pJ2gOgN6x-UePzKQqjZ-37" value="Some default text to fill some space, and&amp;nbsp;&lt;span&gt;something more so there is more text&lt;/span&gt;" style="text;html=1;points=[];align=left;verticalAlign=top;spacingTop=-4;fontSize=12;fontFamily=Verdana;whiteSpace=wrap;" vertex="1" parent="7pJ2gOgN6x-UePzKQqjZ-28">
          <mxGeometry x="800" y="170" width="240" height="40" as="geometry" />
        </mxCell>
        <mxCell id="7pJ2gOgN6x-UePzKQqjZ-38" value="Search" style="text;html=1;points=[];align=left;verticalAlign=top;spacingTop=-4;fontSize=15;fontFamily=Verdana" vertex="1" parent="7pJ2gOgN6x-UePzKQqjZ-28">
          <mxGeometry x="800" y="230" width="170" height="30" as="geometry" />
        </mxCell>
        <mxCell id="7pJ2gOgN6x-UePzKQqjZ-39" value="Search" style="strokeWidth=1;shadow=0;dashed=0;align=center;html=1;shape=mxgraph.mockup.forms.searchBox;strokeColor=#999999;mainText=;strokeColor2=#008cff;fontColor=#666666;fontSize=17;align=left;spacingLeft=3;rounded=0;labelBackgroundColor=none;" vertex="1" parent="7pJ2gOgN6x-UePzKQqjZ-28">
          <mxGeometry x="800" y="260" width="220" height="30" as="geometry" />
        </mxCell>
        <mxCell id="7pJ2gOgN6x-UePzKQqjZ-40" value="" style="verticalLabelPosition=bottom;shadow=0;dashed=0;align=center;html=1;verticalAlign=top;strokeWidth=1;shape=mxgraph.mockup.markup.line;strokeColor=#999999;rounded=0;labelBackgroundColor=none;fillColor=#ffffff;fontFamily=Verdana;fontSize=12;fontColor=#000000;" vertex="1" parent="7pJ2gOgN6x-UePzKQqjZ-28">
          <mxGeometry y="310" width="1050" height="20" as="geometry" />
        </mxCell>
        <mxCell id="7pJ2gOgN6x-UePzKQqjZ-41" value="Title 1" style="text;html=1;points=[];align=left;verticalAlign=top;spacingTop=-4;fontSize=15;fontFamily=Verdana" vertex="1" parent="7pJ2gOgN6x-UePzKQqjZ-28">
          <mxGeometry x="20" y="330" width="170" height="30" as="geometry" />
        </mxCell>
        <mxCell id="7pJ2gOgN6x-UePzKQqjZ-42" value="Lorem ipsum dolor sit amet, consectetur adipisicing elit, sed do eiusmod tempor incididunt ut labore et dolore magna aliqua. Ut enim ad minim veniam, quis nostrud exercitation ullamco laboris nisi ut aliquip ex ea commodo consequat. Duis aute irure dolor in reprehenderit in voluptate velit esse cillum dolore eu fugiat nulla pariatur. Excepteur sint occaecat cupidatat non proident, sunt in culpa qui officia deserunt mollit anim id est laborum.&#xa;Sed ut perspiciatis unde omnis iste natus error sit voluptatem accusantium doloremque laudantium, totam rem aperiam, eaque ipsa quae ab illo inventore veritatis et quasi architecto beatae vitae dicta sunt explicabo. Nemo enim ipsam voluptatem quia voluptas sit aspernatur aut odit aut fugit, sed quia consequuntur magni dolores eos qui ratione voluptatem sequi nesciunt. Neque porro quisquam est, qui dolorem ipsum quia dolor sit amet, consectetur, adipisci velit, sed quia non numquam eius modi tempora incidunt ut labore et dolore magnam aliquam quaerat voluptatem. Ut enim ad minima veniam, quis nostrum exercitationem ullam corporis suscipit laboriosam, nisi ut aliquid ex ea commodi consequatur? Quis autem vel eum iure reprehenderit qui in ea voluptate velit esse quam nihil molestiae consequatur, vel illum qui dolorem eum fugiat quo voluptas nulla pariatur?" style="text;spacingTop=-5;whiteSpace=wrap;html=1;align=left;fontSize=12;fontFamily=Helvetica;fillColor=none;strokeColor=none;rounded=0;shadow=1;labelBackgroundColor=none;" vertex="1" parent="7pJ2gOgN6x-UePzKQqjZ-28">
          <mxGeometry x="20" y="370" width="570" height="240" as="geometry" />
        </mxCell>
        <mxCell id="7pJ2gOgN6x-UePzKQqjZ-43" value="Button 1" style="strokeWidth=1;shadow=0;dashed=0;align=center;html=1;shape=mxgraph.mockup.buttons.button;strokeColor=#666666;mainText=;buttonStyle=round;fontSize=17;fontStyle=0;fillColor=none;whiteSpace=wrap;rounded=0;labelBackgroundColor=none;" vertex="1" parent="7pJ2gOgN6x-UePzKQqjZ-28">
          <mxGeometry x="790" y="360" width="190" height="30" as="geometry" />
        </mxCell>
        <mxCell id="7pJ2gOgN6x-UePzKQqjZ-44" value="Button 2" style="strokeWidth=1;shadow=0;dashed=0;align=center;html=1;shape=mxgraph.mockup.buttons.button;strokeColor=#666666;mainText=;buttonStyle=round;fontSize=17;fontStyle=0;fillColor=none;whiteSpace=wrap;rounded=0;labelBackgroundColor=none;" vertex="1" parent="7pJ2gOgN6x-UePzKQqjZ-28">
          <mxGeometry x="790" y="405" width="190" height="30" as="geometry" />
        </mxCell>
        <mxCell id="7pJ2gOgN6x-UePzKQqjZ-45" value="Some default text to fill some space, and&amp;nbsp;&lt;span&gt;something more so there is more text&lt;/span&gt;" style="text;html=1;points=[];align=left;verticalAlign=top;spacingTop=-4;fontSize=12;fontFamily=Verdana;whiteSpace=wrap;" vertex="1" parent="7pJ2gOgN6x-UePzKQqjZ-28">
          <mxGeometry x="790" y="450" width="240" height="40" as="geometry" />
        </mxCell>
        <mxCell id="7pJ2gOgN6x-UePzKQqjZ-46" value="" style="verticalLabelPosition=bottom;shadow=0;dashed=0;align=center;html=1;verticalAlign=top;strokeWidth=1;shape=mxgraph.mockup.markup.line;strokeColor=#999999;rounded=0;labelBackgroundColor=none;fillColor=#ffffff;fontFamily=Verdana;fontSize=12;fontColor=#000000;" vertex="1" parent="7pJ2gOgN6x-UePzKQqjZ-28">
          <mxGeometry y="580" width="1050" height="20" as="geometry" />
        </mxCell>
        <mxCell id="7pJ2gOgN6x-UePzKQqjZ-47" value="" style="verticalLabelPosition=bottom;shadow=0;dashed=0;align=center;html=1;verticalAlign=top;strokeWidth=1;shape=mxgraph.mockup.graphics.simpleIcon;strokeColor=#999999;fillColor=#ffffff;rounded=0;labelBackgroundColor=none;fontFamily=Verdana;fontSize=12;fontColor=#000000;" vertex="1" parent="7pJ2gOgN6x-UePzKQqjZ-28">
          <mxGeometry x="15" y="610" width="200" height="200" as="geometry" />
        </mxCell>
        <mxCell id="7pJ2gOgN6x-UePzKQqjZ-48" value="Title 2" style="text;html=1;points=[];align=left;verticalAlign=top;spacingTop=-4;fontSize=15;fontFamily=Verdana" vertex="1" parent="7pJ2gOgN6x-UePzKQqjZ-28">
          <mxGeometry x="280" y="610" width="170" height="30" as="geometry" />
        </mxCell>
        <mxCell id="7pJ2gOgN6x-UePzKQqjZ-49" value="Title 3" style="text;html=1;points=[];align=left;verticalAlign=top;spacingTop=-4;fontSize=15;fontFamily=Verdana" vertex="1" parent="7pJ2gOgN6x-UePzKQqjZ-28">
          <mxGeometry x="780" y="610" width="170" height="30" as="geometry" />
        </mxCell>
        <mxCell id="7pJ2gOgN6x-UePzKQqjZ-50" value="&lt;div style=&quot;text-align: justify&quot;&gt;&lt;span&gt;Some default text to fill some space, and&amp;nbsp;&lt;/span&gt;&lt;span&gt;something more so there is more text&lt;/span&gt;&lt;/div&gt;&lt;div style=&quot;text-align: justify&quot;&gt;&lt;hr id=&quot;null&quot; style=&quot;text-align: justify&quot;&gt;&lt;span&gt;&lt;div style=&quot;text-align: justify&quot;&gt;&lt;span&gt;Some default text to fill some space, and&amp;nbsp;&lt;/span&gt;&lt;span&gt;something more so there is more text&lt;/span&gt;&lt;/div&gt;&lt;/span&gt;&lt;/div&gt;&lt;hr id=&quot;null&quot; style=&quot;text-align: justify&quot;&gt;&lt;span&gt;&lt;div style=&quot;text-align: justify&quot;&gt;&lt;span&gt;Some default text to fill some space, and&amp;nbsp;&lt;/span&gt;&lt;span&gt;something more so there is more text&lt;/span&gt;&lt;/div&gt;&lt;/span&gt;&lt;hr id=&quot;null&quot; style=&quot;text-align: justify&quot;&gt;&lt;span&gt;&lt;div style=&quot;text-align: justify&quot;&gt;&lt;span&gt;Some default text to fill some space, and&amp;nbsp;&lt;/span&gt;&lt;span&gt;something more so there is more text&lt;/span&gt;&lt;/div&gt;&lt;/span&gt;&lt;hr id=&quot;null&quot; style=&quot;text-align: left&quot;&gt;" style="whiteSpace=wrap;html=1;rounded=0;shadow=0;labelBackgroundColor=none;strokeWidth=1;fontFamily=Verdana;fontSize=12;align=center;verticalAlign=top;" vertex="1" parent="7pJ2gOgN6x-UePzKQqjZ-28">
          <mxGeometry x="780" y="640" width="260" height="170" as="geometry" />
        </mxCell>
        <mxCell id="7pJ2gOgN6x-UePzKQqjZ-51" value="Some default text to fill some space, and&amp;nbsp;&lt;span&gt;something more so there is more text&lt;/span&gt;" style="text;html=1;points=[];align=left;verticalAlign=top;spacingTop=-4;fontSize=12;fontFamily=Verdana;whiteSpace=wrap;" vertex="1" parent="7pJ2gOgN6x-UePzKQqjZ-28">
          <mxGeometry x="270" y="650" width="470" height="40" as="geometry" />
        </mxCell>
        <mxCell id="7pJ2gOgN6x-UePzKQqjZ-111" value="" style="strokeWidth=1;shadow=0;dashed=0;align=center;html=1;shape=mxgraph.mockup.containers.browserWindow;rSize=0;strokeColor=#666666;mainText=,;recursiveResize=0;rounded=0;labelBackgroundColor=none;fontFamily=Verdana;fontSize=12" vertex="1" parent="1">
          <mxGeometry x="30" y="1720" width="1060" height="820" as="geometry" />
        </mxCell>
        <mxCell id="7pJ2gOgN6x-UePzKQqjZ-112" value="Page 1" style="strokeWidth=1;shadow=0;dashed=0;align=center;html=1;shape=mxgraph.mockup.containers.anchor;fontSize=17;fontColor=#666666;align=left;" vertex="1" parent="7pJ2gOgN6x-UePzKQqjZ-111">
          <mxGeometry x="60" y="12" width="110" height="26" as="geometry" />
        </mxCell>
        <mxCell id="7pJ2gOgN6x-UePzKQqjZ-113" value="https://www.hmt.com" style="strokeWidth=1;shadow=0;dashed=0;align=center;html=1;shape=mxgraph.mockup.containers.anchor;rSize=0;fontSize=17;fontColor=#666666;align=left;" vertex="1" parent="7pJ2gOgN6x-UePzKQqjZ-111">
          <mxGeometry x="130" y="60" width="250" height="26" as="geometry" />
        </mxCell>
        <mxCell id="7pJ2gOgN6x-UePzKQqjZ-114" value="" style="verticalLabelPosition=bottom;shadow=0;dashed=0;align=center;html=1;verticalAlign=top;strokeWidth=1;shape=mxgraph.mockup.markup.line;strokeColor=#999999;rounded=0;labelBackgroundColor=none;fillColor=#ffffff;fontFamily=Verdana;fontSize=12;fontColor=#000000;" vertex="1" parent="7pJ2gOgN6x-UePzKQqjZ-111">
          <mxGeometry y="135" width="1050" height="20" as="geometry" />
        </mxCell>
        <mxCell id="7pJ2gOgN6x-UePzKQqjZ-115" value="" style="shape=mxgraph.mockup.containers.marginRect;rectMarginTop=10;strokeColor=#666666;strokeWidth=1;dashed=0;rounded=1;arcSize=5;recursiveResize=0;html=1;whiteSpace=wrap;" vertex="1" parent="7pJ2gOgN6x-UePzKQqjZ-111">
          <mxGeometry x="70" y="225" width="200" height="200" as="geometry" />
        </mxCell>
        <mxCell id="7pJ2gOgN6x-UePzKQqjZ-116" value="HMT 1" style="shape=rect;strokeColor=none;fillColor=#008cff;strokeWidth=1;dashed=0;rounded=1;arcSize=20;fontColor=#ffffff;fontSize=17;spacing=2;spacingTop=-2;align=left;autosize=1;spacingLeft=4;resizeWidth=0;resizeHeight=0;perimeter=none;html=1;whiteSpace=wrap;" vertex="1" parent="7pJ2gOgN6x-UePzKQqjZ-115">
          <mxGeometry x="5" width="80" height="30" as="geometry" />
        </mxCell>
        <mxCell id="7pJ2gOgN6x-UePzKQqjZ-117" value="Some default text to describe the tree" style="text;html=1;points=[];align=left;verticalAlign=top;spacingTop=-4;fontSize=12;fontFamily=Verdana;whiteSpace=wrap;" vertex="1" parent="7pJ2gOgN6x-UePzKQqjZ-115">
          <mxGeometry x="20" y="60" width="160" height="65" as="geometry" />
        </mxCell>
        <mxCell id="7pJ2gOgN6x-UePzKQqjZ-118" value="Logout" style="text;html=1;points=[];align=left;verticalAlign=top;spacingTop=-4;fontSize=15;fontFamily=Verdana" vertex="1" parent="7pJ2gOgN6x-UePzKQqjZ-111">
          <mxGeometry x="990" y="115" width="60" height="30" as="geometry" />
        </mxCell>
        <mxCell id="7pJ2gOgN6x-UePzKQqjZ-119" value="Project" style="strokeWidth=1;shadow=0;dashed=0;align=center;html=1;shape=mxgraph.mockup.navigation.anchor;fontSize=17;fontColor=#666666;fontStyle=1;" vertex="1" parent="7pJ2gOgN6x-UePzKQqjZ-111">
          <mxGeometry x="20" y="115" width="60" height="30" as="geometry" />
        </mxCell>
        <mxCell id="7pJ2gOgN6x-UePzKQqjZ-120" value="" style="shape=mxgraph.mockup.containers.marginRect;rectMarginTop=10;strokeColor=#666666;strokeWidth=1;dashed=0;rounded=1;arcSize=5;recursiveResize=0;html=1;whiteSpace=wrap;" vertex="1" parent="7pJ2gOgN6x-UePzKQqjZ-111">
          <mxGeometry x="340" y="225" width="200" height="200" as="geometry" />
        </mxCell>
        <mxCell id="7pJ2gOgN6x-UePzKQqjZ-121" value="HMT 2" style="shape=rect;strokeColor=none;fillColor=#008cff;strokeWidth=1;dashed=0;rounded=1;arcSize=20;fontColor=#ffffff;fontSize=17;spacing=2;spacingTop=-2;align=left;autosize=1;spacingLeft=4;resizeWidth=0;resizeHeight=0;perimeter=none;html=1;whiteSpace=wrap;" vertex="1" parent="7pJ2gOgN6x-UePzKQqjZ-120">
          <mxGeometry x="5" width="80" height="30" as="geometry" />
        </mxCell>
        <mxCell id="7pJ2gOgN6x-UePzKQqjZ-122" value="Some default text to describe the tree" style="text;html=1;points=[];align=left;verticalAlign=top;spacingTop=-4;fontSize=12;fontFamily=Verdana;whiteSpace=wrap;" vertex="1" parent="7pJ2gOgN6x-UePzKQqjZ-120">
          <mxGeometry x="20" y="60" width="160" height="65" as="geometry" />
        </mxCell>
        <mxCell id="7pJ2gOgN6x-UePzKQqjZ-123" value="&gt;" style="strokeWidth=1;shadow=0;dashed=0;align=center;html=1;shape=mxgraph.mockup.navigation.anchor;fontSize=24;fontColor=#aaaaaa;fontStyle=1;" vertex="1" parent="7pJ2gOgN6x-UePzKQqjZ-111">
          <mxGeometry x="80" y="115" width="20" height="30" as="geometry" />
        </mxCell>
        <mxCell id="7pJ2gOgN6x-UePzKQqjZ-124" value="HMT" style="strokeWidth=1;shadow=0;dashed=0;align=center;html=1;shape=mxgraph.mockup.navigation.anchor;fontSize=17;fontColor=#666666;fontStyle=1;" vertex="1" parent="7pJ2gOgN6x-UePzKQqjZ-111">
          <mxGeometry x="90" y="115" width="60" height="30" as="geometry" />
        </mxCell>
        <mxCell id="7pJ2gOgN6x-UePzKQqjZ-125" value="" style="shape=mxgraph.mockup.containers.marginRect;rectMarginTop=10;strokeColor=#666666;strokeWidth=1;dashed=0;rounded=1;arcSize=5;recursiveResize=0;html=1;whiteSpace=wrap;" vertex="1" parent="7pJ2gOgN6x-UePzKQqjZ-111">
          <mxGeometry x="610" y="225" width="200" height="200" as="geometry" />
        </mxCell>
        <mxCell id="7pJ2gOgN6x-UePzKQqjZ-126" value="HMT 3" style="shape=rect;strokeColor=none;fillColor=#008cff;strokeWidth=1;dashed=0;rounded=1;arcSize=20;fontColor=#ffffff;fontSize=17;spacing=2;spacingTop=-2;align=left;autosize=1;spacingLeft=4;resizeWidth=0;resizeHeight=0;perimeter=none;html=1;whiteSpace=wrap;" vertex="1" parent="7pJ2gOgN6x-UePzKQqjZ-125">
          <mxGeometry x="5" width="80" height="30" as="geometry" />
        </mxCell>
        <mxCell id="7pJ2gOgN6x-UePzKQqjZ-127" value="Some default text to describe the tree" style="text;html=1;points=[];align=left;verticalAlign=top;spacingTop=-4;fontSize=12;fontFamily=Verdana;whiteSpace=wrap;" vertex="1" parent="7pJ2gOgN6x-UePzKQqjZ-125">
          <mxGeometry x="20" y="60" width="160" height="65" as="geometry" />
        </mxCell>
        <mxCell id="7pJ2gOgN6x-UePzKQqjZ-224" value="+" style="strokeWidth=1;shadow=0;dashed=0;align=center;html=1;shape=mxgraph.mockup.buttons.button;strokeColor=#666666;mainText=;buttonStyle=round;fontSize=17;fontStyle=0;fillColor=none;whiteSpace=wrap;rounded=0;labelBackgroundColor=none;" vertex="1" parent="7pJ2gOgN6x-UePzKQqjZ-111">
          <mxGeometry x="940" y="170" width="50" height="40" as="geometry" />
        </mxCell>
        <mxCell id="7pJ2gOgN6x-UePzKQqjZ-128" value="" style="strokeWidth=1;shadow=0;dashed=0;align=center;html=1;shape=mxgraph.mockup.containers.browserWindow;rSize=0;strokeColor=#666666;mainText=,;recursiveResize=0;rounded=0;labelBackgroundColor=none;fontFamily=Verdana;fontSize=12" vertex="1" parent="1">
          <mxGeometry x="30" y="2560" width="1060" height="820" as="geometry" />
        </mxCell>
        <mxCell id="7pJ2gOgN6x-UePzKQqjZ-129" value="Page 1" style="strokeWidth=1;shadow=0;dashed=0;align=center;html=1;shape=mxgraph.mockup.containers.anchor;fontSize=17;fontColor=#666666;align=left;" vertex="1" parent="7pJ2gOgN6x-UePzKQqjZ-128">
          <mxGeometry x="60" y="12" width="110" height="26" as="geometry" />
        </mxCell>
        <mxCell id="7pJ2gOgN6x-UePzKQqjZ-130" value="https://www.hmt.com" style="strokeWidth=1;shadow=0;dashed=0;align=center;html=1;shape=mxgraph.mockup.containers.anchor;rSize=0;fontSize=17;fontColor=#666666;align=left;" vertex="1" parent="7pJ2gOgN6x-UePzKQqjZ-128">
          <mxGeometry x="130" y="60" width="250" height="26" as="geometry" />
        </mxCell>
        <mxCell id="7pJ2gOgN6x-UePzKQqjZ-131" value="" style="verticalLabelPosition=bottom;shadow=0;dashed=0;align=center;html=1;verticalAlign=top;strokeWidth=1;shape=mxgraph.mockup.markup.line;strokeColor=#999999;rounded=0;labelBackgroundColor=none;fillColor=#ffffff;fontFamily=Verdana;fontSize=12;fontColor=#000000;" vertex="1" parent="7pJ2gOgN6x-UePzKQqjZ-128">
          <mxGeometry y="135" width="1050" height="20" as="geometry" />
        </mxCell>
        <mxCell id="7pJ2gOgN6x-UePzKQqjZ-135" value="Logout" style="text;html=1;points=[];align=left;verticalAlign=top;spacingTop=-4;fontSize=15;fontFamily=Verdana" vertex="1" parent="7pJ2gOgN6x-UePzKQqjZ-128">
          <mxGeometry x="990" y="115" width="60" height="30" as="geometry" />
        </mxCell>
        <mxCell id="7pJ2gOgN6x-UePzKQqjZ-136" value="Project" style="strokeWidth=1;shadow=0;dashed=0;align=center;html=1;shape=mxgraph.mockup.navigation.anchor;fontSize=17;fontColor=#666666;fontStyle=1;" vertex="1" parent="7pJ2gOgN6x-UePzKQqjZ-128">
          <mxGeometry x="20" y="115" width="60" height="30" as="geometry" />
        </mxCell>
        <mxCell id="7pJ2gOgN6x-UePzKQqjZ-140" value="&gt;" style="strokeWidth=1;shadow=0;dashed=0;align=center;html=1;shape=mxgraph.mockup.navigation.anchor;fontSize=24;fontColor=#aaaaaa;fontStyle=1;" vertex="1" parent="7pJ2gOgN6x-UePzKQqjZ-128">
          <mxGeometry x="80" y="115" width="20" height="30" as="geometry" />
        </mxCell>
        <mxCell id="7pJ2gOgN6x-UePzKQqjZ-141" value="HMT" style="strokeWidth=1;shadow=0;dashed=0;align=center;html=1;shape=mxgraph.mockup.navigation.anchor;fontSize=17;fontColor=#666666;fontStyle=1;" vertex="1" parent="7pJ2gOgN6x-UePzKQqjZ-128">
          <mxGeometry x="90" y="115" width="60" height="30" as="geometry" />
        </mxCell>
        <mxCell id="7pJ2gOgN6x-UePzKQqjZ-145" value="&gt;" style="strokeWidth=1;shadow=0;dashed=0;align=center;html=1;shape=mxgraph.mockup.navigation.anchor;fontSize=24;fontColor=#aaaaaa;fontStyle=1;" vertex="1" parent="7pJ2gOgN6x-UePzKQqjZ-128">
          <mxGeometry x="140" y="115" width="20" height="30" as="geometry" />
        </mxCell>
        <mxCell id="7pJ2gOgN6x-UePzKQqjZ-147" value="main" style="strokeWidth=1;shadow=0;dashed=0;align=center;html=1;shape=mxgraph.mockup.forms.comboBox;strokeColor=#999999;fillColor=#ddeeff;align=left;fillColor2=#aaddff;mainText=;fontColor=#666666;fontSize=17;spacingLeft=3;" vertex="1" parent="7pJ2gOgN6x-UePzKQqjZ-128">
          <mxGeometry x="160" y="110" width="150" height="35" as="geometry" />
        </mxCell>
        <mxCell id="7pJ2gOgN6x-UePzKQqjZ-148" value="" style="verticalLabelPosition=bottom;shadow=0;dashed=0;align=center;html=1;verticalAlign=top;strokeWidth=1;shape=mxgraph.mockup.markup.line;strokeColor=#999999;rounded=0;labelBackgroundColor=none;fillColor=#ffffff;fontFamily=Verdana;fontSize=12;fontColor=#000000;rotation=-90;" vertex="1" parent="7pJ2gOgN6x-UePzKQqjZ-128">
          <mxGeometry x="-132.5" y="467.5" width="665" height="20" as="geometry" />
        </mxCell>
        <mxCell id="7pJ2gOgN6x-UePzKQqjZ-150" value="&amp;nbsp; General" style="text;html=1;points=[];align=left;verticalAlign=top;spacingTop=-4;fontSize=30;fontFamily=Verdana" vertex="1" parent="7pJ2gOgN6x-UePzKQqjZ-128">
          <mxGeometry y="145" width="200" height="50" as="geometry" />
        </mxCell>
        <mxCell id="7pJ2gOgN6x-UePzKQqjZ-151" value="" style="verticalLabelPosition=bottom;shadow=0;dashed=0;align=center;html=1;verticalAlign=top;strokeWidth=1;shape=mxgraph.mockup.markup.line;strokeColor=#999999;rounded=0;labelBackgroundColor=none;fillColor=#ffffff;fontFamily=Verdana;fontSize=12;fontColor=#000000;rotation=0;" vertex="1" parent="7pJ2gOgN6x-UePzKQqjZ-128">
          <mxGeometry y="460" width="1040" height="20" as="geometry" />
        </mxCell>
        <mxCell id="7pJ2gOgN6x-UePzKQqjZ-152" value="30" style="strokeWidth=1;shadow=0;dashed=0;align=center;html=1;shape=mxgraph.mockup.forms.pwField;strokeColor=#999999;mainText=;align=left;fontColor=#666666;fontSize=17;spacingLeft=3;" vertex="1" parent="7pJ2gOgN6x-UePzKQqjZ-128">
          <mxGeometry x="10" y="225" width="180" height="30" as="geometry" />
        </mxCell>
        <mxCell id="7pJ2gOgN6x-UePzKQqjZ-153" value="Acquisition Step" style="text;html=1;points=[];align=left;verticalAlign=top;spacingTop=-4;fontSize=15;fontFamily=Verdana" vertex="1" parent="7pJ2gOgN6x-UePzKQqjZ-128">
          <mxGeometry x="10" y="195" width="180" height="30" as="geometry" />
        </mxCell>
        <mxCell id="7pJ2gOgN6x-UePzKQqjZ-154" value="20" style="strokeWidth=1;shadow=0;dashed=0;align=center;html=1;shape=mxgraph.mockup.forms.pwField;strokeColor=#999999;mainText=;align=left;fontColor=#666666;fontSize=17;spacingLeft=3;" vertex="1" parent="7pJ2gOgN6x-UePzKQqjZ-128">
          <mxGeometry x="10" y="300" width="180" height="30" as="geometry" />
        </mxCell>
        <mxCell id="7pJ2gOgN6x-UePzKQqjZ-155" value="Target Temperature" style="text;html=1;points=[];align=left;verticalAlign=top;spacingTop=-4;fontSize=15;fontFamily=Verdana" vertex="1" parent="7pJ2gOgN6x-UePzKQqjZ-128">
          <mxGeometry x="10" y="270" width="180" height="30" as="geometry" />
        </mxCell>
        <mxCell id="7pJ2gOgN6x-UePzKQqjZ-157" value="Start Session" style="strokeWidth=1;shadow=0;dashed=0;align=center;html=1;shape=mxgraph.mockup.buttons.button;strokeColor=#666666;mainText=;buttonStyle=round;fontSize=17;fontStyle=0;fillColor=none;whiteSpace=wrap;rounded=0;labelBackgroundColor=none;" vertex="1" parent="7pJ2gOgN6x-UePzKQqjZ-128">
          <mxGeometry x="5" y="350" width="190" height="30" as="geometry" />
        </mxCell>
        <mxCell id="7pJ2gOgN6x-UePzKQqjZ-172" value="0%" style="text;html=1;points=[];align=center;verticalAlign=top;spacingTop=-4;fontSize=15;fontFamily=Verdana" vertex="1" parent="7pJ2gOgN6x-UePzKQqjZ-128">
          <mxGeometry y="395" width="200" height="30" as="geometry" />
        </mxCell>
        <mxCell id="7pJ2gOgN6x-UePzKQqjZ-173" value="Interaction" style="text;html=1;points=[];align=left;verticalAlign=top;spacingTop=-4;fontSize=30;fontFamily=Verdana" vertex="1" parent="7pJ2gOgN6x-UePzKQqjZ-128">
          <mxGeometry x="10" y="470" width="200" height="50" as="geometry" />
        </mxCell>
        <mxCell id="7pJ2gOgN6x-UePzKQqjZ-174" value="KPI view" style="text;html=1;points=[];align=left;verticalAlign=top;spacingTop=-4;fontSize=30;fontFamily=Verdana" vertex="1" parent="7pJ2gOgN6x-UePzKQqjZ-128">
          <mxGeometry x="210" y="470" width="200" height="50" as="geometry" />
        </mxCell>
        <mxCell id="7pJ2gOgN6x-UePzKQqjZ-175" value="20" style="strokeWidth=1;shadow=0;dashed=0;align=center;html=1;shape=mxgraph.mockup.forms.pwField;strokeColor=#999999;mainText=;align=left;fontColor=#666666;fontSize=17;spacingLeft=3;" vertex="1" parent="7pJ2gOgN6x-UePzKQqjZ-128">
          <mxGeometry x="10" y="710" width="180" height="30" as="geometry" />
        </mxCell>
        <mxCell id="7pJ2gOgN6x-UePzKQqjZ-176" value="WIN" style="text;html=1;points=[];align=left;verticalAlign=top;spacingTop=-4;fontSize=15;fontFamily=Verdana" vertex="1" parent="7pJ2gOgN6x-UePzKQqjZ-128">
          <mxGeometry x="10" y="680" width="180" height="30" as="geometry" />
        </mxCell>
        <mxCell id="7pJ2gOgN6x-UePzKQqjZ-177" value="SEND" style="strokeWidth=1;shadow=0;dashed=0;align=center;html=1;shape=mxgraph.mockup.buttons.button;strokeColor=#666666;mainText=;buttonStyle=round;fontSize=17;fontStyle=0;fillColor=none;whiteSpace=wrap;rounded=0;labelBackgroundColor=none;" vertex="1" parent="7pJ2gOgN6x-UePzKQqjZ-128">
          <mxGeometry x="5" y="770" width="190" height="30" as="geometry" />
        </mxCell>
        <mxCell id="7pJ2gOgN6x-UePzKQqjZ-178" value="FCU" style="text;html=1;points=[];align=left;verticalAlign=top;spacingTop=-4;fontSize=15;fontFamily=Verdana" vertex="1" parent="7pJ2gOgN6x-UePzKQqjZ-128">
          <mxGeometry x="10" y="610" width="180" height="30" as="geometry" />
        </mxCell>
        <mxCell id="7pJ2gOgN6x-UePzKQqjZ-179" value="15" style="strokeWidth=1;shadow=0;dashed=0;align=center;html=1;shape=mxgraph.mockup.forms.pwField;strokeColor=#999999;mainText=;align=left;fontColor=#666666;fontSize=17;spacingLeft=3;" vertex="1" parent="7pJ2gOgN6x-UePzKQqjZ-128">
          <mxGeometry x="10" y="640" width="180" height="30" as="geometry" />
        </mxCell>
        <mxCell id="7pJ2gOgN6x-UePzKQqjZ-180" value="SHOW" style="strokeWidth=1;shadow=0;dashed=0;align=center;html=1;shape=mxgraph.mockup.buttons.button;strokeColor=#666666;mainText=;buttonStyle=round;fontSize=17;fontStyle=0;fillColor=none;whiteSpace=wrap;rounded=0;labelBackgroundColor=none;" vertex="1" parent="7pJ2gOgN6x-UePzKQqjZ-128">
          <mxGeometry x="5" y="570" width="95" height="30" as="geometry" />
        </mxCell>
        <mxCell id="7pJ2gOgN6x-UePzKQqjZ-181" value="SET" style="strokeWidth=1;shadow=0;dashed=0;align=center;html=1;shape=mxgraph.mockup.buttons.button;strokeColor=#666666;mainText=;buttonStyle=round;fontSize=17;fontStyle=0;fillColor=none;whiteSpace=wrap;rounded=0;labelBackgroundColor=none;" vertex="1" parent="7pJ2gOgN6x-UePzKQqjZ-128">
          <mxGeometry x="100" y="570" width="95" height="30" as="geometry" />
        </mxCell>
        <mxCell id="7pJ2gOgN6x-UePzKQqjZ-182" value="Ti: 0" style="text;html=1;points=[];align=right;verticalAlign=top;spacingTop=-4;fontSize=15;fontFamily=Verdana" vertex="1" parent="7pJ2gOgN6x-UePzKQqjZ-128">
          <mxGeometry y="530" width="90" height="30" as="geometry" />
        </mxCell>
        <mxCell id="7pJ2gOgN6x-UePzKQqjZ-183" value="Te: 0" style="text;html=1;points=[];align=left;verticalAlign=top;spacingTop=-4;fontSize=15;fontFamily=Verdana" vertex="1" parent="7pJ2gOgN6x-UePzKQqjZ-128">
          <mxGeometry x="110" y="530" width="90" height="30" as="geometry" />
        </mxCell>
        <mxCell id="7pJ2gOgN6x-UePzKQqjZ-184" value="" style="verticalLabelPosition=bottom;shadow=0;dashed=0;align=center;html=1;verticalAlign=top;strokeWidth=1;shape=mxgraph.mockup.graphics.gauge;fillColor=#ffffff;strokeColor=#999999;gaugePos=25;scaleColors=#bbddff,#ddeeff,#99ccff;gaugeLabels=,,;needleColor=#008cff;" vertex="1" parent="7pJ2gOgN6x-UePzKQqjZ-128">
          <mxGeometry x="237.5" y="540" width="140" height="140" as="geometry" />
        </mxCell>
        <mxCell id="7pJ2gOgN6x-UePzKQqjZ-185" value="Current" style="strokeWidth=1;shadow=0;dashed=0;align=center;html=1;shape=mxgraph.mockup.graphics.anchor;fontColor=#666666;" vertex="1" parent="7pJ2gOgN6x-UePzKQqjZ-184">
          <mxGeometry x="35" y="28.000000000000004" width="70" height="28.000000000000004" as="geometry" />
        </mxCell>
        <mxCell id="7pJ2gOgN6x-UePzKQqjZ-186" value="0" style="strokeWidth=1;shadow=0;dashed=0;align=center;html=1;shape=mxgraph.mockup.graphics.anchor;align=left;fontColor=#666666;" vertex="1" parent="7pJ2gOgN6x-UePzKQqjZ-184">
          <mxGeometry x="28.000000000000004" y="105.00000000000001" width="70" height="28.000000000000004" as="geometry" />
        </mxCell>
        <mxCell id="7pJ2gOgN6x-UePzKQqjZ-187" value="1" style="strokeWidth=1;shadow=0;dashed=0;align=center;html=1;shape=mxgraph.mockup.graphics.anchor;align=right;fontColor=#666666;" vertex="1" parent="7pJ2gOgN6x-UePzKQqjZ-184">
          <mxGeometry x="42.00000000000001" y="105.00000000000001" width="70" height="28.000000000000004" as="geometry" />
        </mxCell>
        <mxCell id="7pJ2gOgN6x-UePzKQqjZ-189" value="" style="verticalLabelPosition=bottom;shadow=0;dashed=0;align=center;html=1;verticalAlign=top;strokeWidth=1;shape=mxgraph.mockup.graphics.gauge;fillColor=#ffffff;strokeColor=#999999;gaugePos=25;scaleColors=#bbddff,#ddeeff,#99ccff;gaugeLabels=,,;needleColor=#008cff;" vertex="1" parent="7pJ2gOgN6x-UePzKQqjZ-128">
          <mxGeometry x="420" y="540" width="140" height="140" as="geometry" />
        </mxCell>
        <mxCell id="7pJ2gOgN6x-UePzKQqjZ-190" value="Expected" style="strokeWidth=1;shadow=0;dashed=0;align=center;html=1;shape=mxgraph.mockup.graphics.anchor;fontColor=#666666;" vertex="1" parent="7pJ2gOgN6x-UePzKQqjZ-189">
          <mxGeometry x="35" y="28.000000000000004" width="70" height="28.000000000000004" as="geometry" />
        </mxCell>
        <mxCell id="7pJ2gOgN6x-UePzKQqjZ-191" value="0" style="strokeWidth=1;shadow=0;dashed=0;align=center;html=1;shape=mxgraph.mockup.graphics.anchor;align=left;fontColor=#666666;" vertex="1" parent="7pJ2gOgN6x-UePzKQqjZ-189">
          <mxGeometry x="28.000000000000004" y="105.00000000000001" width="70" height="28.000000000000004" as="geometry" />
        </mxCell>
        <mxCell id="7pJ2gOgN6x-UePzKQqjZ-192" value="1" style="strokeWidth=1;shadow=0;dashed=0;align=center;html=1;shape=mxgraph.mockup.graphics.anchor;align=right;fontColor=#666666;" vertex="1" parent="7pJ2gOgN6x-UePzKQqjZ-189">
          <mxGeometry x="42.00000000000001" y="105.00000000000001" width="70" height="28.000000000000004" as="geometry" />
        </mxCell>
        <mxCell id="7pJ2gOgN6x-UePzKQqjZ-194" value="Previous&lt;br&gt;--" style="text;html=1;points=[];align=center;verticalAlign=top;spacingTop=-4;fontSize=15;fontFamily=Verdana" vertex="1" parent="7pJ2gOgN6x-UePzKQqjZ-128">
          <mxGeometry x="210" y="700" width="90" height="50" as="geometry" />
        </mxCell>
        <mxCell id="7pJ2gOgN6x-UePzKQqjZ-195" value="Current&lt;br&gt;--" style="text;html=1;points=[];align=center;verticalAlign=top;spacingTop=-4;fontSize=15;fontFamily=Verdana" vertex="1" parent="7pJ2gOgN6x-UePzKQqjZ-128">
          <mxGeometry x="300" y="700" width="90" height="50" as="geometry" />
        </mxCell>
        <mxCell id="7pJ2gOgN6x-UePzKQqjZ-196" value="Expected&lt;br&gt;--" style="text;html=1;points=[];align=center;verticalAlign=top;spacingTop=-4;fontSize=15;fontFamily=Verdana" vertex="1" parent="7pJ2gOgN6x-UePzKQqjZ-128">
          <mxGeometry x="400" y="700" width="90" height="50" as="geometry" />
        </mxCell>
        <mxCell id="7pJ2gOgN6x-UePzKQqjZ-197" value="Change&lt;br&gt;--" style="text;html=1;points=[];align=center;verticalAlign=top;spacingTop=-4;fontSize=15;fontFamily=Verdana" vertex="1" parent="7pJ2gOgN6x-UePzKQqjZ-128">
          <mxGeometry x="490" y="700" width="90" height="50" as="geometry" />
        </mxCell>
        <mxCell id="7pJ2gOgN6x-UePzKQqjZ-188" value="select KPI" style="strokeWidth=1;shadow=0;dashed=0;align=center;html=1;shape=mxgraph.mockup.forms.comboBox;strokeColor=#999999;fillColor=#ddeeff;align=left;fillColor2=#aaddff;mainText=;fontColor=#666666;fontSize=17;spacingLeft=3;" vertex="1" parent="7pJ2gOgN6x-UePzKQqjZ-128">
          <mxGeometry x="330" y="760" width="150" height="35" as="geometry" />
        </mxCell>
        <mxCell id="7pJ2gOgN6x-UePzKQqjZ-156" value="" style="verticalLabelPosition=bottom;shadow=0;dashed=0;align=center;html=1;verticalAlign=top;strokeWidth=1;shape=mxgraph.mockup.markup.line;strokeColor=#999999;rounded=0;labelBackgroundColor=none;fillColor=#ffffff;fontFamily=Verdana;fontSize=12;fontColor=#000000;rotation=-90;" vertex="1" parent="7pJ2gOgN6x-UePzKQqjZ-128">
          <mxGeometry x="440" y="640" width="345" height="8.52" as="geometry" />
        </mxCell>
        <mxCell id="7pJ2gOgN6x-UePzKQqjZ-198" value="History" style="text;html=1;points=[];align=left;verticalAlign=top;spacingTop=-4;fontSize=30;fontFamily=Verdana" vertex="1" parent="7pJ2gOgN6x-UePzKQqjZ-128">
          <mxGeometry x="620" y="470" width="200" height="50" as="geometry" />
        </mxCell>
        <mxCell id="7pJ2gOgN6x-UePzKQqjZ-199" value="" style="verticalLabelPosition=bottom;shadow=0;dashed=0;align=center;html=1;verticalAlign=top;strokeWidth=1;shape=mxgraph.mockup.graphics.lineChart;strokeColor=none;strokeColor2=#666666;strokeColor3=#008cff;strokeColor4=#dddddd;" vertex="1" parent="7pJ2gOgN6x-UePzKQqjZ-128">
          <mxGeometry x="630" y="525" width="400" height="200" as="geometry" />
        </mxCell>
        <mxCell id="7pJ2gOgN6x-UePzKQqjZ-200" value="select KPI" style="strokeWidth=1;shadow=0;dashed=0;align=center;html=1;shape=mxgraph.mockup.forms.comboBox;strokeColor=#999999;fillColor=#ddeeff;align=left;fillColor2=#aaddff;mainText=;fontColor=#666666;fontSize=17;spacingLeft=3;" vertex="1" parent="7pJ2gOgN6x-UePzKQqjZ-128">
          <mxGeometry x="750" y="760" width="150" height="35" as="geometry" />
        </mxCell>
        <mxCell id="7pJ2gOgN6x-UePzKQqjZ-201" value="HMT Diagram" style="text;html=1;points=[];align=left;verticalAlign=top;spacingTop=-4;fontSize=30;fontFamily=Verdana" vertex="1" parent="7pJ2gOgN6x-UePzKQqjZ-128">
          <mxGeometry x="210" y="150" width="200" height="50" as="geometry" />
        </mxCell>
        <mxCell id="7pJ2gOgN6x-UePzKQqjZ-208" value="Root" style="whiteSpace=wrap;html=1;" vertex="1" parent="7pJ2gOgN6x-UePzKQqjZ-128">
          <mxGeometry x="370" y="232.5" width="100" height="40" as="geometry" />
        </mxCell>
        <mxCell id="7pJ2gOgN6x-UePzKQqjZ-209" value="Child 1" style="whiteSpace=wrap;html=1;" vertex="1" parent="7pJ2gOgN6x-UePzKQqjZ-128">
          <mxGeometry x="300" y="322.5" width="100" height="40" as="geometry" />
        </mxCell>
        <mxCell id="7pJ2gOgN6x-UePzKQqjZ-210" value="" style="edgeStyle=elbowEdgeStyle;elbow=vertical;html=1;rounded=1;curved=0;sourcePerimeterSpacing=0;targetPerimeterSpacing=0;startSize=6;endSize=6;" edge="1" parent="7pJ2gOgN6x-UePzKQqjZ-128" source="7pJ2gOgN6x-UePzKQqjZ-208" target="7pJ2gOgN6x-UePzKQqjZ-209">
          <mxGeometry relative="1" as="geometry" />
        </mxCell>
        <mxCell id="7pJ2gOgN6x-UePzKQqjZ-211" value="Child 2" style="whiteSpace=wrap;html=1;" vertex="1" parent="7pJ2gOgN6x-UePzKQqjZ-128">
          <mxGeometry x="440" y="322.5" width="100" height="40" as="geometry" />
        </mxCell>
        <mxCell id="7pJ2gOgN6x-UePzKQqjZ-212" value="" style="edgeStyle=elbowEdgeStyle;elbow=vertical;html=1;rounded=1;curved=0;sourcePerimeterSpacing=0;targetPerimeterSpacing=0;startSize=6;endSize=6;" edge="1" parent="7pJ2gOgN6x-UePzKQqjZ-128" source="7pJ2gOgN6x-UePzKQqjZ-208" target="7pJ2gOgN6x-UePzKQqjZ-211">
          <mxGeometry relative="1" as="geometry" />
        </mxCell>
        <mxCell id="7pJ2gOgN6x-UePzKQqjZ-213" value="" style="verticalLabelPosition=bottom;shadow=0;dashed=0;align=center;html=1;verticalAlign=top;strokeWidth=1;shape=mxgraph.mockup.markup.line;strokeColor=#999999;rounded=0;labelBackgroundColor=none;fillColor=#ffffff;fontFamily=Verdana;fontSize=12;fontColor=#000000;rotation=-90;" vertex="1" parent="7pJ2gOgN6x-UePzKQqjZ-128">
          <mxGeometry x="499.75" y="305.99" width="325" height="8.03" as="geometry" />
        </mxCell>
        <mxCell id="7pJ2gOgN6x-UePzKQqjZ-214" value="Messages" style="text;html=1;points=[];align=left;verticalAlign=top;spacingTop=-4;fontSize=30;fontFamily=Verdana" vertex="1" parent="7pJ2gOgN6x-UePzKQqjZ-128">
          <mxGeometry x="670" y="150" width="200" height="50" as="geometry" />
        </mxCell>
        <mxCell id="7pJ2gOgN6x-UePzKQqjZ-216" value="" style="verticalLabelPosition=bottom;shadow=0;dashed=0;align=center;html=1;verticalAlign=top;strokeWidth=1;shape=mxgraph.mockup.navigation.scrollBar;strokeColor=#999999;barPos=20;fillColor2=#99ddff;strokeColor2=none;direction=north;" vertex="1" parent="7pJ2gOgN6x-UePzKQqjZ-128">
          <mxGeometry x="640" y="145" width="29.56" height="305" as="geometry" />
        </mxCell>
        <mxCell id="7pJ2gOgN6x-UePzKQqjZ-217" value="" style="verticalLabelPosition=bottom;shadow=0;dashed=0;align=center;html=1;verticalAlign=top;strokeWidth=1;shape=mxgraph.mockup.navigation.scrollBar;strokeColor=#999999;barPos=20;fillColor2=#99ddff;strokeColor2=none;direction=north;rotation=90;" vertex="1" parent="7pJ2gOgN6x-UePzKQqjZ-128">
          <mxGeometry x="410.73" y="241.82" width="45.8" height="458.68" as="geometry" />
        </mxCell>
        <mxCell id="7pJ2gOgN6x-UePzKQqjZ-218" value="TEST" style="strokeWidth=1;shadow=0;dashed=0;align=center;html=1;shape=mxgraph.mockup.buttons.button;strokeColor=#666666;mainText=;buttonStyle=round;fontSize=17;fontStyle=0;fillColor=none;whiteSpace=wrap;rounded=0;labelBackgroundColor=none;" vertex="1" parent="7pJ2gOgN6x-UePzKQqjZ-128">
          <mxGeometry x="722.5" y="410" width="95" height="30" as="geometry" />
        </mxCell>
        <mxCell id="7pJ2gOgN6x-UePzKQqjZ-219" value="APPLY" style="strokeWidth=1;shadow=0;dashed=0;align=center;html=1;shape=mxgraph.mockup.buttons.button;strokeColor=#666666;mainText=;buttonStyle=round;fontSize=17;fontStyle=0;fillColor=none;whiteSpace=wrap;rounded=0;labelBackgroundColor=none;" vertex="1" parent="7pJ2gOgN6x-UePzKQqjZ-128">
          <mxGeometry x="870" y="410" width="95" height="30" as="geometry" />
        </mxCell>
        <mxCell id="7pJ2gOgN6x-UePzKQqjZ-223" value="" style="rounded=0;whiteSpace=wrap;html=1;" vertex="1" parent="7pJ2gOgN6x-UePzKQqjZ-128">
          <mxGeometry x="680" y="200" width="360" height="200" as="geometry" />
        </mxCell>
        <mxCell id="7pJ2gOgN6x-UePzKQqjZ-221" value="- Messaggio 1&lt;br&gt;- Messaggio 2" style="text;html=1;points=[];align=left;verticalAlign=top;spacingTop=-4;fontSize=15;fontFamily=Verdana" vertex="1" parent="7pJ2gOgN6x-UePzKQqjZ-128">
          <mxGeometry x="690" y="210" width="340" height="45" as="geometry" />
        </mxCell>
        <mxCell id="7pJ2gOgN6x-UePzKQqjZ-222" value="" style="verticalLabelPosition=bottom;shadow=0;dashed=0;align=center;html=1;verticalAlign=top;strokeWidth=1;shape=mxgraph.mockup.navigation.scrollBar;strokeColor=#999999;barPos=20;fillColor2=#99ddff;strokeColor2=none;direction=north;" vertex="1" parent="7pJ2gOgN6x-UePzKQqjZ-128">
          <mxGeometry x="1020.44" y="197.5" width="29.56" height="205" as="geometry" />
        </mxCell>
        <mxCell id="7pJ2gOgN6x-UePzKQqjZ-225" value="" style="strokeWidth=1;shadow=0;dashed=0;align=center;html=1;shape=mxgraph.mockup.containers.browserWindow;rSize=0;strokeColor=#666666;mainText=,;recursiveResize=0;rounded=0;labelBackgroundColor=none;fontFamily=Verdana;fontSize=12" vertex="1" parent="1">
          <mxGeometry x="1120" y="1720" width="1060" height="820" as="geometry" />
        </mxCell>
        <mxCell id="7pJ2gOgN6x-UePzKQqjZ-226" value="Page 1" style="strokeWidth=1;shadow=0;dashed=0;align=center;html=1;shape=mxgraph.mockup.containers.anchor;fontSize=17;fontColor=#666666;align=left;" vertex="1" parent="7pJ2gOgN6x-UePzKQqjZ-225">
          <mxGeometry x="60" y="12" width="110" height="26" as="geometry" />
        </mxCell>
        <mxCell id="7pJ2gOgN6x-UePzKQqjZ-227" value="https://www.hmt.com" style="strokeWidth=1;shadow=0;dashed=0;align=center;html=1;shape=mxgraph.mockup.containers.anchor;rSize=0;fontSize=17;fontColor=#666666;align=left;" vertex="1" parent="7pJ2gOgN6x-UePzKQqjZ-225">
          <mxGeometry x="130" y="60" width="250" height="26" as="geometry" />
        </mxCell>
        <mxCell id="7pJ2gOgN6x-UePzKQqjZ-228" value="" style="verticalLabelPosition=bottom;shadow=0;dashed=0;align=center;html=1;verticalAlign=top;strokeWidth=1;shape=mxgraph.mockup.markup.line;strokeColor=#999999;rounded=0;labelBackgroundColor=none;fillColor=#ffffff;fontFamily=Verdana;fontSize=12;fontColor=#000000;" vertex="1" parent="7pJ2gOgN6x-UePzKQqjZ-225">
          <mxGeometry y="135" width="1050" height="20" as="geometry" />
        </mxCell>
        <mxCell id="7pJ2gOgN6x-UePzKQqjZ-232" value="Logout" style="text;html=1;points=[];align=left;verticalAlign=top;spacingTop=-4;fontSize=15;fontFamily=Verdana" vertex="1" parent="7pJ2gOgN6x-UePzKQqjZ-225">
          <mxGeometry x="990" y="115" width="60" height="30" as="geometry" />
        </mxCell>
        <mxCell id="7pJ2gOgN6x-UePzKQqjZ-233" value="Project" style="strokeWidth=1;shadow=0;dashed=0;align=center;html=1;shape=mxgraph.mockup.navigation.anchor;fontSize=17;fontColor=#666666;fontStyle=1;" vertex="1" parent="7pJ2gOgN6x-UePzKQqjZ-225">
          <mxGeometry x="20" y="115" width="60" height="30" as="geometry" />
        </mxCell>
        <mxCell id="7pJ2gOgN6x-UePzKQqjZ-237" value="&gt;" style="strokeWidth=1;shadow=0;dashed=0;align=center;html=1;shape=mxgraph.mockup.navigation.anchor;fontSize=24;fontColor=#aaaaaa;fontStyle=1;" vertex="1" parent="7pJ2gOgN6x-UePzKQqjZ-225">
          <mxGeometry x="80" y="115" width="20" height="30" as="geometry" />
        </mxCell>
        <mxCell id="7pJ2gOgN6x-UePzKQqjZ-238" value="HMT" style="strokeWidth=1;shadow=0;dashed=0;align=center;html=1;shape=mxgraph.mockup.navigation.anchor;fontSize=17;fontColor=#666666;fontStyle=1;" vertex="1" parent="7pJ2gOgN6x-UePzKQqjZ-225">
          <mxGeometry x="90" y="115" width="60" height="30" as="geometry" />
        </mxCell>
        <mxCell id="7pJ2gOgN6x-UePzKQqjZ-242" value="+" style="strokeWidth=1;shadow=0;dashed=0;align=center;html=1;shape=mxgraph.mockup.buttons.button;strokeColor=#666666;mainText=;buttonStyle=round;fontSize=17;fontStyle=0;fillColor=none;whiteSpace=wrap;rounded=0;labelBackgroundColor=none;" vertex="1" parent="7pJ2gOgN6x-UePzKQqjZ-225">
          <mxGeometry x="940" y="170" width="50" height="40" as="geometry" />
        </mxCell>
        <mxCell id="7pJ2gOgN6x-UePzKQqjZ-243" value="&lt;table border=&quot;0&quot; cellpadding=&quot;0&quot; cellspacing=&quot;0&quot; width=&quot;100%&quot; height=&quot;100%&quot; style=&quot;font-size:1em;&quot;&gt;&lt;tr height=&quot;0%&quot;&gt;&lt;td width=&quot;25%&quot;&gt;Layer 1&lt;/td&gt;&lt;td width=&quot;25%&quot;&gt;Layer 2&lt;/td&gt;&lt;td width=&quot;25%&quot; style=&quot;color:#008cff;&quot;&gt;Layer 3&lt;/td&gt;&lt;td width=&quot;25%&quot;&gt;Layer 4&lt;/td&gt;&lt;/tr&gt;&lt;tr height=&quot;100%&quot;&gt;&lt;td/&gt;&lt;/tr&gt;&lt;/table&gt;" style="strokeWidth=1;shadow=0;dashed=0;align=center;html=1;shape=mxgraph.mockup.navigation.stepBar;strokeColor=#c4c4c4;textColor=#666666;textColor2=#008cff;mainText=,,+,;textSize=17;fillColor=#666666;overflow=fill;fontSize=17;fontColor=#666666;" vertex="1" parent="7pJ2gOgN6x-UePzKQqjZ-225">
          <mxGeometry x="400" y="740" width="300" height="50" as="geometry" />
        </mxCell>
        <mxCell id="7pJ2gOgN6x-UePzKQqjZ-244" value="20" style="strokeWidth=1;shadow=0;dashed=0;align=center;html=1;shape=mxgraph.mockup.forms.pwField;strokeColor=#999999;mainText=;align=left;fontColor=#666666;fontSize=17;spacingLeft=3;" vertex="1" parent="7pJ2gOgN6x-UePzKQqjZ-225">
          <mxGeometry x="460" y="420" width="180" height="30" as="geometry" />
        </mxCell>
        <mxCell id="7pJ2gOgN6x-UePzKQqjZ-246" value="" style="shape=mxgraph.mockup.containers.marginRect;rectMarginTop=10;strokeColor=#666666;strokeWidth=1;dashed=0;rounded=1;arcSize=5;recursiveResize=0;html=1;whiteSpace=wrap;" vertex="1" parent="7pJ2gOgN6x-UePzKQqjZ-225">
          <mxGeometry x="450" y="260" width="200" height="110" as="geometry" />
        </mxCell>
        <mxCell id="7pJ2gOgN6x-UePzKQqjZ-247" value="Step 1" style="shape=rect;strokeColor=none;fillColor=#008cff;strokeWidth=1;dashed=0;rounded=1;arcSize=20;fontColor=#ffffff;fontSize=17;spacing=2;spacingTop=-2;align=left;autosize=1;spacingLeft=4;resizeWidth=0;resizeHeight=0;perimeter=none;html=1;whiteSpace=wrap;" vertex="1" parent="7pJ2gOgN6x-UePzKQqjZ-246">
          <mxGeometry x="5" width="70" height="30" as="geometry" />
        </mxCell>
        <mxCell id="7pJ2gOgN6x-UePzKQqjZ-248" value="Insert ROOT" style="text;html=1;points=[];align=left;verticalAlign=top;spacingTop=-4;fontSize=12;fontFamily=Verdana;whiteSpace=wrap;" vertex="1" parent="7pJ2gOgN6x-UePzKQqjZ-246">
          <mxGeometry x="20" y="60" width="160" height="65" as="geometry" />
        </mxCell>
      </root>
    </mxGraphModel>
  </diagram>
</mxfile>
